<svg xmlns="http://www.w3.org/2000/svg" viewBox="0 0 512 512" id="pill">
  <g>
    <path fill="#e0e0e0" d="M449.6 62.4a105.6 105.6 0 0 0-149.28 0L62.4 300.32a105.6 105.6 0 0 0 149.28 149.28L449.6 211.68a105.6 105.6 0 0 0 0-149.28Z"></path>
    <path fill="#f44336" d="M193.12 169.76L62.4 300.32a105.6 105.6 0 0 0 149.28 149.28l130.56-130.56Z"></path>
    <path fill="#fafafa" d="M96 410.56a16 16 0 0 1-16-16 105.92 105.92 0 0 1 30.4-78.24l36.64-36.64a16 16 0 0 1 23.36 23.36l-36.64 36.64A71.84 71.84 0 0 0 112 393.44a16 16 0 0 1-16 17.12Z"></path>
  </g>
</svg>