<svg xmlns="http://www.w3.org/2000/svg" viewBox="0 0 192 192" id="pill">
  <g>
    <path fill="#e0e0e0" d="M168.6 23.4a39.6 39.6 0 0 0-55.98 0L23.4 112.62a39.6 39.6 0 0 0 55.98 55.98L168.6 79.38a39.6 39.6 0 0 0 0-55.98Z"></path>
    <path fill="#f44336" d="M72.42 63.66L23.4 112.62a39.6 39.6 0 0 0 55.98 55.98l49.02-48.96Z"></path>
    <path fill="#fafafa" d="M36 153.96a6 6 0 0 1-6-6 39.72 39.72 0 0 1 11.4-29.34l13.74-13.74a6 6 0 0 1 8.76 8.76l-13.74 13.74A26.94 26.94 0 0 0 42 147.54a6 6 0 0 1-6 6.42Z"></path>
  </g>
</svg>